<svg width="18" height="18" viewBox="0 0 18 18" fill="none" xmlns="http://www.w3.org/2000/svg">
<path d="M11.2667 6.32496L7.69166 9.90829L6.31666 8.53329C6.24195 8.44606 6.15002 8.37521 6.04663 8.32519C5.94325 8.27517 5.83064 8.24706 5.71587 8.24263C5.60111 8.23819 5.48666 8.25753 5.37972 8.29943C5.27279 8.34132 5.17566 8.40487 5.09445 8.48608C5.01324 8.5673 4.94969 8.66442 4.9078 8.77136C4.8659 8.8783 4.84656 8.99274 4.85099 9.1075C4.85543 9.22227 4.88354 9.33488 4.93356 9.43827C4.98357 9.54166 5.05443 9.63359 5.14166 9.70829L7.09999 11.675C7.17786 11.7522 7.27021 11.8133 7.37174 11.8548C7.47327 11.8962 7.58199 11.9173 7.69166 11.9166C7.91028 11.9157 8.11978 11.8289 8.27499 11.675L12.4417 7.50829C12.5198 7.43082 12.5818 7.33866 12.6241 7.23711C12.6664 7.13556 12.6882 7.02664 12.6882 6.91663C12.6882 6.80662 12.6664 6.69769 12.6241 6.59615C12.5818 6.4946 12.5198 6.40243 12.4417 6.32496C12.2855 6.16975 12.0743 6.08263 11.8542 6.08263C11.634 6.08263 11.4228 6.16975 11.2667 6.32496ZM8.99999 0.666626C7.35182 0.666626 5.74065 1.15537 4.37024 2.07105C2.99983 2.98672 1.93173 4.28821 1.301 5.81093C0.670267 7.33365 0.505239 9.0092 0.826783 10.6257C1.14833 12.2422 1.942 13.7271 3.10744 14.8925C4.27287 16.058 5.75773 16.8516 7.37424 17.1732C8.99075 17.4947 10.6663 17.3297 12.189 16.699C13.7117 16.0682 15.0132 15.0001 15.9289 13.6297C16.8446 12.2593 17.3333 10.6481 17.3333 8.99996C17.3333 7.90561 17.1178 6.82198 16.699 5.81093C16.2802 4.79988 15.6664 3.88122 14.8925 3.1074C14.1187 2.33358 13.2001 1.71975 12.189 1.30096C11.178 0.882174 10.0943 0.666626 8.99999 0.666626V0.666626ZM8.99999 15.6666C7.68145 15.6666 6.39252 15.2756 5.29619 14.5431C4.19986 13.8105 3.34538 12.7694 2.8408 11.5512C2.33621 10.333 2.20419 8.99256 2.46143 7.69936C2.71866 6.40615 3.3536 5.21826 4.28595 4.28591C5.2183 3.35356 6.40618 2.71863 7.69939 2.46139C8.9926 2.20416 10.333 2.33618 11.5512 2.84076C12.7694 3.34535 13.8106 4.19983 14.5431 5.29616C15.2757 6.39249 15.6667 7.68142 15.6667 8.99996C15.6667 10.7681 14.9643 12.4638 13.714 13.714C12.4638 14.9642 10.7681 15.6666 8.99999 15.6666V15.6666Z" fill="#FFA97A"/>
</svg>
