<svg width="34" height="28" viewBox="0 0 34 28" fill="none" xmlns="http://www.w3.org/2000/svg">
<path d="M32 7.33341C31.558 7.33341 31.134 7.50901 30.8215 7.82157C30.5089 8.13413 30.3333 8.55805 30.3333 9.00008V22.3334C30.3333 22.7754 30.1577 23.1994 29.8452 23.5119C29.5326 23.8245 29.1087 24.0001 28.6666 24.0001H5.33331C4.89129 24.0001 4.46736 23.8245 4.1548 23.5119C3.84224 23.1994 3.66665 22.7754 3.66665 22.3334V6.35008L13.4666 16.1501C14.4041 17.0864 15.675 17.6123 17 17.6123C18.325 17.6123 19.5958 17.0864 20.5333 16.1501L26.5166 10.1834C26.8305 9.86957 27.0068 9.44392 27.0068 9.00008C27.0068 8.55624 26.8305 8.13059 26.5166 7.81675C26.2028 7.50291 25.7772 7.32659 25.3333 7.32659C24.8895 7.32659 24.4638 7.50291 24.15 7.81675L18.1833 13.8001C18.0284 13.9563 17.844 14.0803 17.6409 14.1649C17.4378 14.2495 17.22 14.2931 17 14.2931C16.78 14.2931 16.5621 14.2495 16.359 14.1649C16.1559 14.0803 15.9716 13.9563 15.8166 13.8001L6.01665 4.00008H18.6666C19.1087 4.00008 19.5326 3.82449 19.8452 3.51193C20.1577 3.19936 20.3333 2.77544 20.3333 2.33341C20.3333 1.89139 20.1577 1.46746 19.8452 1.1549C19.5326 0.842343 19.1087 0.666748 18.6666 0.666748H5.33331C4.00723 0.666748 2.73546 1.19353 1.79778 2.13121C0.860097 3.0689 0.333313 4.34067 0.333313 5.66675V22.3334C0.333313 23.6595 0.860097 24.9313 1.79778 25.8689C2.73546 26.8066 4.00723 27.3334 5.33331 27.3334H28.6666C29.9927 27.3334 31.2645 26.8066 32.2022 25.8689C33.1399 24.9313 33.6666 23.6595 33.6666 22.3334V9.00008C33.6666 8.55805 33.4911 8.13413 33.1785 7.82157C32.8659 7.50901 32.442 7.33341 32 7.33341ZM25.3333 4.00008H32C32.442 4.00008 32.8659 3.82449 33.1785 3.51193C33.4911 3.19936 33.6666 2.77544 33.6666 2.33341C33.6666 1.89139 33.4911 1.46746 33.1785 1.1549C32.8659 0.842343 32.442 0.666748 32 0.666748H25.3333C24.8913 0.666748 24.4674 0.842343 24.1548 1.1549C23.8422 1.46746 23.6666 1.89139 23.6666 2.33341C23.6666 2.77544 23.8422 3.19936 24.1548 3.51193C24.4674 3.82449 24.8913 4.00008 25.3333 4.00008Z" fill="#FFA97A"/>
</svg>
