<svg width="34" height="34" viewBox="0 0 34 34" fill="none" xmlns="http://www.w3.org/2000/svg">
<path d="M25.9 6.09992C25.5044 6.09992 25.1177 6.21722 24.7888 6.43698C24.4599 6.65674 24.2036 6.9691 24.0522 7.33455C23.9008 7.7 23.8612 8.10214 23.9384 8.4901C24.0156 8.87806 24.2061 9.23443 24.4858 9.51413C24.7655 9.79384 25.1218 9.98432 25.5098 10.0615C25.8978 10.1387 26.2999 10.0991 26.6653 9.94768C27.0308 9.7963 27.3432 9.53996 27.5629 9.21106C27.7827 8.88216 27.9 8.49548 27.9 8.09992C27.9 7.56949 27.6893 7.06078 27.3142 6.68571C26.9391 6.31063 26.4304 6.09992 25.9 6.09992V6.09992ZM33.5666 10.1333C33.5342 8.75042 33.2752 7.38226 32.8 6.08325C32.3762 4.97181 31.7166 3.96538 30.8666 3.13325C30.0414 2.27896 29.0326 1.62355 27.9166 1.21659C26.6211 0.726853 25.2514 0.461935 23.8666 0.433252C22.1 0.333252 21.5333 0.333252 17 0.333252C12.4666 0.333252 11.9 0.333252 10.1333 0.433252C8.74857 0.461935 7.37889 0.726853 6.08331 1.21659C4.96944 1.62767 3.96154 2.28252 3.13331 3.13325C2.27902 3.95855 1.62361 4.96732 1.21665 6.08325C0.726914 7.37882 0.461996 8.74851 0.433313 10.1333C0.333313 11.8999 0.333313 12.4666 0.333313 16.9999C0.333313 21.5333 0.333313 22.0999 0.433313 23.8666C0.461996 25.2513 0.726914 26.621 1.21665 27.9166C1.62361 29.0325 2.27902 30.0413 3.13331 30.8666C3.96154 31.7173 4.96944 32.3722 6.08331 32.7833C7.37889 33.273 8.74857 33.5379 10.1333 33.5666C11.9 33.6666 12.4666 33.6666 17 33.6666C21.5333 33.6666 22.1 33.6666 23.8666 33.5666C25.2514 33.5379 26.6211 33.273 27.9166 32.7833C29.0326 32.3763 30.0414 31.7209 30.8666 30.8666C31.7204 30.0376 32.3805 29.0302 32.8 27.9166C33.2752 26.6176 33.5342 25.2494 33.5666 23.8666C33.5666 22.0999 33.6666 21.5333 33.6666 16.9999C33.6666 12.4666 33.6666 11.8999 33.5666 10.1333V10.1333ZM30.5666 23.6666C30.5545 24.7245 30.3629 25.7728 30 26.7666C29.7339 27.4919 29.3064 28.1473 28.75 28.6833C28.2094 29.2341 27.5554 29.6606 26.8333 29.9333C25.8395 30.2962 24.7913 30.4878 23.7333 30.4999C22.0666 30.5833 21.45 30.5999 17.0666 30.5999C12.6833 30.5999 12.0666 30.5999 10.4 30.4999C9.30146 30.5205 8.20764 30.3513 7.16665 29.9999C6.47628 29.7134 5.85224 29.2879 5.33331 28.7499C4.78013 28.2145 4.35805 27.5586 4.09998 26.8333C3.69307 25.8252 3.46739 24.7532 3.43331 23.6666C3.43331 21.9999 3.33331 21.3833 3.33331 16.9999C3.33331 12.6166 3.33331 11.9999 3.43331 10.3333C3.44078 9.25168 3.63823 8.17983 4.01665 7.16659C4.31006 6.4631 4.76042 5.83602 5.33331 5.33325C5.83967 4.7602 6.46546 4.30508 7.16665 3.99992C8.18256 3.63332 9.25331 3.44172 10.3333 3.43325C12 3.43325 12.6166 3.33325 17 3.33325C21.3833 3.33325 22 3.33325 23.6666 3.43325C24.7246 3.44539 25.7728 3.637 26.7666 3.99992C27.524 4.28101 28.2038 4.738 28.75 5.33325C29.2961 5.84522 29.7229 6.47114 30 7.16659C30.3704 8.18147 30.5621 9.25289 30.5666 10.3333C30.65 11.9999 30.6666 12.6166 30.6666 16.9999C30.6666 21.3833 30.65 21.9999 30.5666 23.6666ZM17 8.44992C15.3097 8.45321 13.6583 8.95746 12.2544 9.89895C10.8506 10.8404 9.75728 12.1769 9.1127 13.7395C8.46813 15.3021 8.30119 17.0207 8.63297 18.6781C8.96475 20.3356 9.78037 21.8575 10.9768 23.0516C12.1732 24.2456 13.6967 25.0583 15.3547 25.3868C17.0128 25.7154 18.7311 25.5451 20.2924 24.8975C21.8538 24.2499 23.1881 23.154 24.1269 21.7483C25.0656 20.3426 25.5666 18.6902 25.5666 16.9999C25.5689 15.8751 25.3487 14.7609 24.9187 13.7215C24.4888 12.6821 23.8576 11.7379 23.0614 10.9433C22.2653 10.1487 21.3199 9.51938 20.2796 9.09147C19.2394 8.66355 18.1248 8.44552 17 8.44992V8.44992ZM17 22.5499C15.9023 22.5499 14.8293 22.2244 13.9166 21.6146C13.0039 21.0047 12.2925 20.1379 11.8724 19.1238C11.4524 18.1097 11.3425 16.9938 11.5566 15.9172C11.7708 14.8406 12.2994 13.8517 13.0755 13.0755C13.8517 12.2993 14.8406 11.7707 15.9172 11.5566C16.9938 11.3424 18.1097 11.4523 19.1239 11.8724C20.138 12.2925 21.0048 13.0038 21.6146 13.9165C22.2245 14.8292 22.55 15.9022 22.55 16.9999C22.55 17.7288 22.4064 18.4505 22.1275 19.1238C21.8486 19.7972 21.4398 20.409 20.9244 20.9244C20.4091 21.4397 19.7972 21.8485 19.1239 22.1275C18.4505 22.4064 17.7288 22.5499 17 22.5499V22.5499Z" fill="#FFA97A"/>
</svg>
